<?xml version="1.0" encoding="UTF-8" standalone="no"?>
<!DOCTYPE svg PUBLIC "-//W3C//DTD SVG 1.1//EN" "http://www.w3.org/Graphics/SVG/1.1/DTD/svg11.dtd">
<svg version="1.1" xmlns="http://www.w3.org/2000/svg" xmlns:xlink="http://www.w3.org/1999/xlink" preserveAspectRatio="xMidYMid meet" viewBox="62.641747623395034 73.99891394918815 190.20689655172418 337.6391880946303" width="186.21" height="330.64"><defs><path d="M128.88 78.04C133.86 79.44 129.89 95.41 131.74 105.2C132.31 108.22 126.74 126.6 126.74 129.88C126.74 149.76 130.77 157.08 116.94 157.08C115.41 157.08 121.53 147.98 116.94 145.34C111.22 142.04 95.56 147.91 93.9 146.9C84.9 141.43 86.43 140.38 86.43 125.47C86.43 115.72 104.82 111.69 109.19 105.2C113.75 98.45 104.43 89.44 111.49 89.44C115.64 89.44 126.08 77.24 128.88 78.04Z" id="a1KX1H5VD6"></path><path d="M90.84 143.49L119.2 143.49L119.2 235.28L90.84 235.28L90.84 143.49Z" id="b2jIS9YzBk"></path><path d="M239.85 222.43C245.37 222.43 249.85 226.91 249.85 232.43C249.85 267.67 249.85 363.4 249.85 398.64C249.85 404.16 245.37 408.64 239.85 408.64C204.61 408.64 108.88 408.64 73.64 408.64C68.12 408.64 63.64 404.16 63.64 398.64C63.64 363.4 63.64 267.67 63.64 232.43C63.64 226.91 68.12 222.43 73.64 222.43C108.88 222.43 204.61 222.43 239.85 222.43Z" id="bxTODgGAO"></path><path d="M224.41 276.74C230.6 276.74 235.62 281.76 235.62 287.96C235.62 308.65 235.62 360.47 235.62 381.4C235.62 386.92 231.15 391.4 225.62 391.4C196.07 391.4 117.42 391.4 87.87 391.4C82.34 391.4 77.87 386.92 77.87 381.4C77.87 360.47 77.87 307.67 77.87 286.74C77.87 281.22 82.34 276.74 87.87 276.74C117.42 276.74 195.1 276.74 224.41 276.74Z" id="a24UYaf3uj"></path><clipPath id="clipbN5YteTr9"><use xlink:href="#a24UYaf3uj" opacity="1"></use></clipPath><path d="M105.02 284.5L117.95 284.5L117.95 383.64L105.02 383.64L105.02 284.5Z" id="a830mpuXKV"></path><path d="M196.06 284.5L208.99 284.5L208.99 383.64L196.06 383.64L196.06 284.5Z" id="bfJ4McZIi"></path><path d="M165.54 287.26L178.47 287.26L178.47 386.4L165.54 386.4L165.54 287.26Z" id="a2kggGdYU"></path><path d="M135.02 287.26L147.95 287.26L147.95 386.4L135.02 386.4L135.02 287.26Z" id="d24L8S7Lti"></path><path d="M219.65 284.5C220.38 283.97 221.16 286.82 221.91 286.44C222.5 286.14 224.07 280.67 224.58 279.99C225.15 279.23 224.47 282.15 224.58 282.87C224.67 283.48 225.57 283.94 225.68 283.97C226.68 284.32 223.89 286.58 224.15 288.25C224.36 289.62 226.16 289.32 226.12 290.36C226.08 291.76 224.15 294.4 224.15 295.71C224.15 300.02 220.85 303.52 216.79 303.52C212.73 303.52 209.43 300.02 209.43 295.71C209.43 293.54 208.44 291.46 210.24 289.26C210.65 288.76 211.33 287.73 212.35 287.09C212.74 286.85 212.69 288.57 213.2 288.47C214.13 288.28 215.08 286.04 215.36 285.91C216.27 285.49 215.73 287.9 216.79 287.9C217 287.9 218.71 285.18 219.65 284.5Z" id="h2JszkJAz"></path><path d="M229.1 270.34C230.05 271.32 230.01 273.13 230.01 274.61C230.01 276.5 229.68 279.73 228.23 280.71C227.35 281.3 228.33 277.27 227.2 277.27C225.63 277.27 222.97 279.84 221.97 278.77C221.05 277.8 225.01 273.25 225.01 271.8C225.01 268.78 227 263.05 230.01 263.05C231.55 263.05 228.1 269.31 229.1 270.34Z" id="c5ce5b5EB"></path><path d="M135.02 250C135.02 259.07 127.66 266.43 118.6 266.43C109.53 266.43 102.17 259.07 102.17 250C102.17 240.94 109.53 233.58 118.6 233.58C127.66 233.58 135.02 240.94 135.02 250Z" id="d2CwNCYdKM"></path><path d="M127.18 236.53L128.88 237.71L118.65 252.53L116.94 251.35L127.18 236.53Z" id="anfsLrUiw"></path></defs><g><g><use xlink:href="#a1KX1H5VD6" opacity="1" fill="#d8d8d8" fill-opacity="1"></use></g><g><use xlink:href="#b2jIS9YzBk" opacity="1" fill="#5d5d5d" fill-opacity="1"></use></g><g><use xlink:href="#bxTODgGAO" opacity="1" fill="#9e9e9e" fill-opacity="1"></use></g><g><use xlink:href="#a24UYaf3uj" opacity="1" fill="#d21f1f" fill-opacity="1"></use><g clip-path="url(#clipbN5YteTr9)"><use xlink:href="#a24UYaf3uj" opacity="1" fill-opacity="0" stroke="#533131" stroke-width="22" stroke-opacity="1"></use></g></g><g><use xlink:href="#a830mpuXKV" opacity="1" fill="#533131" fill-opacity="1"></use><g><use xlink:href="#a830mpuXKV" opacity="1" fill-opacity="0" stroke="#624040" stroke-width="0" stroke-opacity="0"></use></g></g><g><use xlink:href="#bfJ4McZIi" opacity="1" fill="#533131" fill-opacity="1"></use><g><use xlink:href="#bfJ4McZIi" opacity="1" fill-opacity="0" stroke="#624040" stroke-width="0" stroke-opacity="0"></use></g></g><g><use xlink:href="#a2kggGdYU" opacity="1" fill="#533131" fill-opacity="1"></use><g><use xlink:href="#a2kggGdYU" opacity="1" fill-opacity="0" stroke="#624040" stroke-width="0" stroke-opacity="0"></use></g></g><g><use xlink:href="#d24L8S7Lti" opacity="1" fill="#533131" fill-opacity="1"></use><g><use xlink:href="#d24L8S7Lti" opacity="1" fill-opacity="0" stroke="#624040" stroke-width="0" stroke-opacity="0"></use></g></g><g><use xlink:href="#h2JszkJAz" opacity="1" fill="#d21f1f" fill-opacity="1"></use></g><g><use xlink:href="#c5ce5b5EB" opacity="1" fill="#d21f1f" fill-opacity="1"></use></g><g><use xlink:href="#d2CwNCYdKM" opacity="1" fill="#ffffff" fill-opacity="1"></use></g><g><use xlink:href="#anfsLrUiw" opacity="1" fill="#000000" fill-opacity="1"></use></g></g></svg>
