<?xml version="1.0" encoding="UTF-8" standalone="no"?>
<!DOCTYPE svg PUBLIC "-//W3C//DTD SVG 1.1//EN" "http://www.w3.org/Graphics/SVG/1.1/DTD/svg11.dtd">
<svg version="1.1" xmlns="http://www.w3.org/2000/svg" xmlns:xlink="http://www.w3.org/1999/xlink" preserveAspectRatio="xMidYMid meet" viewBox="170.1855670103092 92.35051546391747 324.3711340206187 324.37113402061857" width="312.37" height="312.37"><defs><path d="M488.56 254.54C488.56 340.74 418.57 410.72 332.37 410.72C246.17 410.72 176.19 340.74 176.19 254.54C176.19 168.33 246.17 98.35 332.37 98.35C418.57 98.35 488.56 168.33 488.56 254.54Z" id="b5aQMnvg9U"></path><path d="M457.11 209.07C457.11 223.01 445.8 234.33 431.86 234.33C417.92 234.33 406.6 223.01 406.6 209.07C406.6 195.13 417.92 183.81 431.86 183.81C445.8 183.81 457.11 195.13 457.11 209.07Z" id="b24L0JmN8"></path><path d="M332.37 168.87C332.37 191.06 314.36 209.07 292.16 209.07C269.97 209.07 251.96 191.06 251.96 168.87C251.96 146.68 269.97 128.66 292.16 128.66C314.36 128.66 332.37 146.68 332.37 168.87Z" id="b193z8YnWx"></path><path d="M426.19 281.24C426.19 291.48 417.87 299.79 407.63 299.79C397.39 299.79 389.07 291.48 389.07 281.24C389.07 271 397.39 262.68 407.63 262.68C417.87 262.68 426.19 271 426.19 281.24Z" id="c2zFgTmfgu"></path><path d="M251.96 167.83L263.96 167.83L263.96 391.66L251.96 391.66L251.96 167.83Z" id="b3gCrlaY2y"></path><path d="M320.37 169.79L332.37 169.79L332.37 410.72L320.37 410.72L320.37 169.79Z" id="dg4wOmQXM"></path></defs><g><g><use xlink:href="#b5aQMnvg9U" opacity="1" fill="#ffffff" fill-opacity="0"></use><g><use xlink:href="#b5aQMnvg9U" opacity="1" fill-opacity="0" stroke="#ffffff" stroke-width="12" stroke-opacity="1"></use></g></g><g><use xlink:href="#b24L0JmN8" opacity="1" fill="#ffffff" fill-opacity="1"></use><g><use xlink:href="#b24L0JmN8" opacity="1" fill-opacity="0" stroke="#ffffff" stroke-width="1" stroke-opacity="0"></use></g></g><g><use xlink:href="#b193z8YnWx" opacity="1" fill="#ffffff" fill-opacity="1"></use><g><use xlink:href="#b193z8YnWx" opacity="1" fill-opacity="0" stroke="#000000" stroke-width="1" stroke-opacity="0"></use></g></g><g><use xlink:href="#c2zFgTmfgu" opacity="1" fill="#ffffff" fill-opacity="1"></use><g><use xlink:href="#c2zFgTmfgu" opacity="1" fill-opacity="0" stroke="#ffffff" stroke-width="1" stroke-opacity="0"></use></g></g><g><use xlink:href="#b3gCrlaY2y" opacity="1" fill="#ffffff" fill-opacity="1"></use><g><use xlink:href="#b3gCrlaY2y" opacity="1" fill-opacity="0" stroke="#000000" stroke-width="1" stroke-opacity="0"></use></g></g><g><use xlink:href="#dg4wOmQXM" opacity="1" fill="#ffffff" fill-opacity="1"></use><g><use xlink:href="#dg4wOmQXM" opacity="1" fill-opacity="0" stroke="#ffffff" stroke-width="1" stroke-opacity="0"></use></g></g></g></svg>
