<?xml version="1.0" encoding="UTF-8" standalone="no"?>
<!DOCTYPE svg PUBLIC "-//W3C//DTD SVG 1.1//EN" "http://www.w3.org/Graphics/SVG/1.1/DTD/svg11.dtd">
<svg version="1.1" xmlns="http://www.w3.org/2000/svg" xmlns:xlink="http://www.w3.org/1999/xlink" preserveAspectRatio="xMidYMid meet" viewBox="-1.0000000000001572 -1.0000000000000338 644.0000000000001 644" width="640" height="640"><defs><path d="M0 0L640 0L640 437.53L314.85 437.53L0 437.53L0 0Z" id="c34endyeob"></path><path d="M507.82 297.16C519.06 297.72 506.91 326.73 510.84 329.92C518.85 336.42 503.83 354.25 489.87 359.56C475.9 364.88 475.39 358 475.39 360.54C475.39 362.44 452.65 367.85 451.35 374.5C450.23 380.28 462.83 384.52 461.71 387.38C456.81 399.89 450.65 400.33 447.48 404.35C444.25 408.43 452.18 391.83 447.85 391.83C444.73 391.83 434.01 390.51 415.68 387.88C414.13 387.66 413.4 385.84 414.37 384.61C424.03 372.3 428.87 363.35 428.87 357.77C428.87 339.63 437.54 324.9 448.23 324.9C451.18 324.9 491.65 296.35 507.82 297.16Z" id="h20y5mKW"></path><path d="M416.69 402.49L415.28 387.38L451.35 392.17L445.82 405.46L448.5 413.64L412.43 408.85L416.69 402.49Z" id="a6bpA3rluC"></path><path d="M0 425.76L160.21 420.42C182.19 422.44 195.93 423.7 201.43 424.21C201.43 424.21 281.85 432.51 281.85 432.51C303.33 434.98 327.4 435.93 354.05 435.36C382.74 434.74 410.12 432.02 436.18 427.18C460.3 422.7 484.98 422.08 509.3 425.34C520.72 426.87 536.19 428.94 552.09 431.06C561.59 432.34 571.21 432.45 580.74 431.42C587.19 430.71 584.73 430.98 589.32 430.48C604.91 428.79 619.93 423.65 633.29 415.45C634.18 414.9 636.42 413.53 640 411.33L640 640L0 640L0 425.76Z" id="kH9IhiYHL"></path><path d="M394.6 442.69C397.18 436.99 398.75 430.89 399.23 424.65C399.45 421.79 400.01 414.63 400.9 403.17L456.6 411.57C454.41 421.61 453.05 427.88 452.5 430.39C451.47 435.13 450.94 439.97 450.94 444.83C450.94 446.15 450.94 446.6 450.94 448.87C450.94 450.58 450.82 452.3 450.56 454C449.33 462.14 446.25 482.51 441.33 515.09L384.34 506.68C388.76 476.66 391.53 457.89 392.64 450.38C393.12 447.08 394.07 443.87 395.44 440.84C396.05 439.49 394.35 443.23 394.6 442.69Z" id="b1vwfkEb1V"></path><path d="M0 416.21C21.38 410.2 34.74 406.45 40.08 404.95C71.34 396.16 104.51 396.9 135.35 407.08C147.59 411.12 140.98 408.94 154.22 413.3C182.27 422.56 208.78 435.97 232.86 453.1C247 463.16 259.34 471.93 275.04 483.1C293.5 496.22 315.94 502.55 338.53 500.98C370.1 498.8 419.02 495.42 447.87 493.43C480.16 491.19 512.23 486.51 543.81 479.42C553.93 477.15 545.87 478.96 558.24 476.18C581.64 470.93 602.51 457.76 617.32 438.9C620.34 435.05 627.9 425.43 640 410.03L640 640L0 640L0 416.21Z" id="b3ij9IJoig"></path><path d="M454.91 409.67L469.71 407.72L450.72 448.47L449.16 437.69L454.91 409.67Z" id="d2LRRgBdho"></path><path d="M405.89 402.27L392.71 395.26L396.21 440.08L401.45 430.53L405.89 402.27Z" id="e8xP1ghsQ"></path><path d="M439.75 410.54L433.49 397.94L423.6 408.61L426.25 443.68L430.21 434.13L439.75 410.54Z" id="a55FXx2OFq"></path><path d="M549.63 214.59C555.9 203.14 575.69 180.29 578.14 186.63C578.83 188.4 604.44 175.3 607.06 179.53C613.46 189.9 602.19 244.93 602.19 250.39C602.19 272.38 527.95 359.21 514.22 359.21C512.29 359.21 522.24 347.57 530.05 335.09C539.04 320.72 546.08 305.23 543.32 305.07C536.9 304.69 525.08 322.54 522.72 315.77C521.71 312.9 524.25 302.93 522.72 297.14C521.18 291.35 515.56 289.74 515.56 286.22C515.56 280.94 521.55 284.46 522.72 279.85C524.36 273.35 516.93 268.05 519.78 261.19C523.33 252.64 537.53 243.17 543.32 243.17C547.25 243.17 544.7 223.58 549.63 214.59Z" id="c3a2EO522"></path><path d="M121.5 421.38C124.85 423.99 130.95 427.55 130.95 431.47C130.95 436.78 127.15 437.09 121.5 439.61C118.65 440.87 115.34 445.95 111.8 445.95C104.98 445.95 108.93 440.77 105.53 436.7C103.67 434.47 92.65 434.3 92.65 431.47C92.65 423.47 101.23 416.98 111.8 416.98C117.19 416.98 118.02 418.67 121.5 421.38Z" id="dfVb7439F"></path><path d="M22.66 43.46L25.85 40.69L25.62 35.4L29.38 39.19L33.69 38.92L29.96 41.42L30.15 46.43L26.73 42.79L22.66 43.46Z" id="d13Kg0EUBa"></path><path d="M59.56 69.79L64.74 70.55L70.27 65.39L68.77 72.87L72.03 77.11L66.77 75.54L61.52 80.4L63.09 73.43L59.56 69.79Z" id="d6pkPXcAom"></path><path d="M32.36 139.28L31.36 136.7L27.58 135.51L31.36 134.23L32.45 131.62L33.1 134.45L36.66 135.59L33.1 136.7L32.36 139.28Z" id="d1Y7jm0QdS"></path><path d="M99.05 28.67L104.5 32.31L108.84 31.87L109.18 36.39L113.54 41.41L107.81 37.14L103.67 37.53L103.53 33.41L99.05 28.67Z" id="efyk4muCF"></path><path d="M232.82 127.95L235.37 131.32L240.67 131.44L236.63 134.94L236.61 139.26L234.36 135.37L229.36 135.23L233.22 132.06L232.82 127.95Z" id="caemWfwRgI"></path><path d="M204.08 163.01L202.97 168.12L207.75 173.99L200.39 171.99L195.93 174.95L197.85 169.82L193.36 164.25L200.21 166.28L204.08 163.01Z" id="d42Pa7MTVC"></path><path d="M136.57 131.21L139.21 130.39L140.65 126.7L141.67 130.56L144.21 131.81L141.34 132.27L139.96 135.75L139.09 132.12L136.57 131.21Z" id="a7zuZWR6l"></path><path d="M242.46 205.16L238.47 210.35L238.62 214.72L234.08 214.75L228.78 218.76L233.43 213.33L233.32 209.18L237.43 209.31L242.46 205.16Z" id="f1jLknGi86"></path><path d="M241.75 9.99L245.92 10.62L249.8 7.02L249.35 12.35L252.35 15.44L248.03 14.23L244.35 17.62L244.9 12.66L241.75 9.99Z" id="c3uMjcN2EP"></path><path d="M245.64 55.16L248.41 59.59L255.93 60.46L249.27 64.17L248.14 69.4L245.93 64.38L238.83 63.53L245.15 60.2L245.64 55.16Z" id="d3jT6qgMjp"></path><path d="M175.1 79.52L176.42 77.09L174.87 73.44L178.3 75.49L180.99 74.62L179.26 76.95L180.7 80.4L177.54 78.41L175.1 79.52Z" id="fHu3He7Im"></path><path d="M302.54 58.55L303.31 65.06L306.46 68.08L303.24 71.27L302.25 77.84L301.78 70.71L298.8 67.81L301.84 65.04L302.54 58.55Z" id="c5lmiymwpW"></path><path d="M66.07 247.84L64.6 243.88L59.56 242.24L64.44 240.04L65.7 235.92L66.73 240.28L71.49 241.86L66.88 243.79L66.07 247.84Z" id="c4gjOQH5CY"></path><path d="M103.68 222.51L106.21 217.94L103.32 210.94L109.79 214.97L114.91 213.41L111.6 217.78L114.3 224.41L108.33 220.49L103.68 222.51Z" id="ckXFBybug"></path><path d="M159.21 272.37L156.44 272.39L154.01 275.51L154.14 271.53L152.07 269.59L154.95 269.98L157.26 267.04L157.05 270.77L159.21 272.37Z" id="a4ftGNR7Z8"></path><path d="M79.03 171.12L84.34 167.29L85.45 163.06L89.81 164.34L96.03 162.01L90.03 165.88L88.94 169.89L85.04 168.58L79.03 171.12Z" id="an7r9m3Oi"></path><path d="M206.91 274.49L210.1 271.72L209.87 266.43L213.64 270.23L217.94 269.95L214.22 272.46L214.41 277.46L210.99 273.82L206.91 274.49Z" id="g3Pdw2vxq"></path><path d="M243.82 300.82L248.99 301.59L254.53 296.42L253.03 303.9L256.28 308.15L251.03 306.58L245.77 311.44L247.34 304.47L243.82 300.82Z" id="b6VImArSt6"></path><path d="M216.61 370.31L215.62 367.73L211.84 366.54L215.62 365.27L216.7 362.65L217.35 365.48L220.92 366.62L217.35 367.73L216.61 370.31Z" id="c78q7NcIAD"></path><path d="M283.3 259.71L288.75 263.34L293.1 262.9L293.43 267.42L297.8 272.44L292.06 268.17L287.93 268.56L287.79 264.45L283.3 259.71Z" id="hlwNF6FUd"></path><path d="M95.69 311.12L99.88 311.65L103.68 307.96L103.35 313.3L106.42 316.32L102.08 315.21L98.47 318.69L98.91 313.71L95.69 311.12Z" id="b12sGFF3oN"></path><path d="M100.64 356.18L103.52 360.55L111.06 361.24L104.48 365.1L103.48 370.36L101.15 365.39L94.03 364.71L100.27 361.24L100.64 356.18Z" id="c5xc3kANS"></path><path d="M30.69 382.18L31.95 379.72L30.32 376.11L33.79 378.08L36.46 377.15L34.78 379.52L36.31 382.94L33.1 381.02L30.69 382.18Z" id="d1p8XklrFE"></path><path d="M157.6 358.24L158.52 364.73L161.75 367.68L158.6 370.94L157.76 377.53L157.13 370.41L154.08 367.59L157.06 364.75L157.6 358.24Z" id="aqoQL0yg2"></path><path d="M283.3 121.49L286.49 118.72L286.26 113.43L290.03 117.23L294.33 116.95L290.61 119.46L290.8 124.46L287.38 120.82L283.3 121.49Z" id="a41zEUNE74"></path><path d="M320.21 147.82L325.38 148.59L330.92 143.42L329.42 150.9L332.67 155.15L327.42 153.58L322.16 158.43L323.73 151.47L320.21 147.82Z" id="bEzLkj5ZU"></path><path d="M293 217.31L292.01 214.73L288.23 213.54L292.01 212.27L293.09 209.65L293.74 212.48L297.31 213.62L293.74 214.73L293 217.31Z" id="amnB5lMtG"></path><path d="M359.69 106.71L365.14 110.34L369.49 109.9L369.82 114.42L374.19 119.44L368.45 115.17L364.32 115.56L364.18 111.45L359.69 106.71Z" id="cspkJ5OD2"></path><path d="M368.91 326.99L372.04 329.83L377.26 328.97L373.94 333.16L374.73 337.4L371.8 334L366.85 334.79L370.06 330.96L368.91 326.99Z" id="b3JtnDULVT"></path><path d="M347.17 366.78L347.03 372.01L352.82 376.89L345.22 376.3L341.39 380.03L342.32 374.63L336.87 369.99L343.98 370.72L347.17 366.78Z" id="a2IoHTGPi9"></path><path d="M274.93 348.08L277.37 346.78L278.1 342.89L279.82 346.49L282.55 347.25L279.81 348.24L279.11 351.91L277.58 348.5L274.93 348.08Z" id="bJP8e322E"></path><path d="M392.71 401.07L389.76 406.91L390.71 411.18L386.26 412.05L381.8 416.98L385.36 410.78L384.48 406.72L388.55 406.09L392.71 401.07Z" id="b37x7obk4"></path><path d="M427.01 252.25L423.41 254.45L422.75 259.71L419.67 255.34L415.38 254.89L419.47 253.04L420.11 248.08L422.88 252.24L427.01 252.25Z" id="ii7rGzgg2"></path><path d="M395 220.15L390.02 218.54L383.71 222.71L386.43 215.58L383.93 210.85L388.85 213.28L394.84 209.36L392.13 215.97L395 220.15Z" id="a4MBBKeVq"></path><path d="M433.38 156.15L433.94 158.86L437.46 160.66L433.52 161.29L432.02 163.69L431.85 160.79L428.52 159.08L432.23 158.57L433.38 156.15Z" id="b4EW5lvUyB"></path><path d="M349.23 254.12L344.46 249.63L340.1 249.35L340.52 244.83L337.05 239.16L342 244.32L346.14 244.63L345.59 248.71L349.23 254.12Z" id="b8go0D1Ime"></path><path d="M467.64 133.73L470.83 130.96L470.6 125.67L474.36 129.47L478.67 129.19L474.94 131.69L475.13 136.7L471.71 133.06L467.64 133.73Z" id="c3euEuNF3a"></path><path d="M504.54 160.06L509.72 160.82L515.25 155.66L513.75 163.14L517.01 167.39L511.75 165.81L506.5 170.67L508.07 163.7L504.54 160.06Z" id="eBd7OXcur"></path><path d="M477.33 229.55L476.34 226.97L472.56 225.78L476.34 224.5L477.43 221.89L478.08 224.72L481.64 225.86L478.07 226.97L477.33 229.55Z" id="b1NEdVJZYl"></path><path d="M544.03 118.95L549.47 122.58L553.82 122.14L554.15 126.66L558.52 131.68L552.78 127.41L548.65 127.8L548.51 123.68L544.03 118.95Z" id="alwMUq6Rb"></path><path d="M570.89 14.11L574.69 15.93L579.46 13.62L577.47 18.59L579.43 22.43L575.65 20L571.14 22.17L573.12 17.58L570.89 14.11Z" id="aNCk0BAD5"></path><path d="M561.38 58.44L562.73 63.49L569.67 66.52L562.21 68.11L559.6 72.78L558.96 67.34L552.41 64.44L559.43 63.12L561.38 58.44Z" id="a6T9fErRsE"></path><path d="M486.79 61.06L488.77 59.13L488.36 55.19L491.03 58.15L493.86 58.1L491.52 59.83L491.89 63.55L489.46 60.72L486.79 61.06Z" id="a17VmP96O8"></path><path d="M614.79 78.34L613.62 84.79L615.75 88.6L611.73 90.7L608.86 96.7L610.5 89.74L608.5 86.1L612.22 84.34L614.79 78.34Z" id="b3zMOUYw7J"></path><path d="M409.04 25.9C415.18 26.45 426.82 25.35 431.58 25.9C446.26 27.59 448.01 31.56 448.01 39.19C448.01 41.14 429.5 45.77 428.2 47.56C423.29 54.33 414.15 53.6 401.73 55.16C397.48 55.69 397.69 60.59 390.99 60.59C383.28 60.59 377.63 54.88 370.92 53.84C359.96 52.13 349.22 54.05 342.51 51.68C336.55 49.58 333.97 43.38 333.97 39.19C333.97 33.81 342.34 33.01 351.07 29.25C355.88 27.18 358 23.22 363.88 21.02C370.79 18.44 381.72 17.79 390.99 17.79C395.55 17.79 404.78 25.52 409.04 25.9Z" id="ai0ZIVtvu"></path><path d="M404.23 27.93C409.58 28.42 419.69 27.45 423.83 27.93C436.59 29.42 438.11 32.93 438.11 39.66C438.11 41.38 422.02 45.47 420.89 47.05C416.62 53.02 408.67 52.38 397.88 53.76C394.19 54.23 394.36 58.55 388.54 58.55C381.84 58.55 376.93 53.51 371.1 52.59C361.57 51.09 352.23 52.78 346.39 50.69C341.21 48.83 338.97 43.36 338.97 39.66C338.97 34.92 346.24 34.21 353.83 30.89C358.02 29.06 359.86 25.56 364.98 23.62C370.98 21.35 380.49 20.77 388.54 20.77C392.51 20.77 400.53 27.6 404.23 27.93Z" id="bOOvjHofS"></path><path d="M379.74 28.07C383.74 30.23 390.99 31.33 390.99 34.95C390.99 38.55 384.37 38.54 380.43 40.69C377.27 42.42 377.29 46.68 372.83 46.68C362.81 46.68 354.67 41.43 354.67 34.95C354.67 32.46 357.93 33.37 359.99 31.47C363.27 28.44 366.67 23.22 372.83 23.22C377.24 23.22 376.59 26.38 379.74 28.07Z" id="c9zzeqoci"></path><path d="M374.12 31.2C374.12 32.71 372.86 33.94 371.3 33.94C369.74 33.94 368.47 32.71 368.47 31.2C368.47 29.69 369.74 28.46 371.3 28.46C372.86 28.46 374.12 29.69 374.12 31.2Z" id="flw3JcAh1"></path></defs><g><g><use xlink:href="#c34endyeob" opacity="1" fill="#2f2f2f" fill-opacity="1"></use><g><use xlink:href="#c34endyeob" opacity="1" fill-opacity="0" stroke="#ffffff" stroke-width="1" stroke-opacity="0"></use></g></g><g><use xlink:href="#h20y5mKW" opacity="1" fill="#b1b1b1" fill-opacity="1"></use></g><g><use xlink:href="#a6bpA3rluC" opacity="1" fill="#1a1a1a" fill-opacity="1"></use></g><g><use xlink:href="#kH9IhiYHL" opacity="1" fill="#5d5d5d" fill-opacity="1"></use><g><use xlink:href="#kH9IhiYHL" opacity="1" fill-opacity="0" stroke="#000000" stroke-width="1" stroke-opacity="0"></use></g></g><g><use xlink:href="#b1vwfkEb1V" opacity="1" fill="#a22b2b" fill-opacity="1"></use><g><use xlink:href="#b1vwfkEb1V" opacity="1" fill-opacity="0" stroke="#120e0e" stroke-width="1" stroke-opacity="0"></use></g></g><g><use xlink:href="#b3ij9IJoig" opacity="1" fill="#848484" fill-opacity="1"></use><g><use xlink:href="#b3ij9IJoig" opacity="1" fill-opacity="0" stroke="#000000" stroke-width="1" stroke-opacity="0"></use></g></g><g><use xlink:href="#d2LRRgBdho" opacity="1" fill="#513b3b" fill-opacity="1"></use></g><g><use xlink:href="#e8xP1ghsQ" opacity="1" fill="#513b3b" fill-opacity="1"></use></g><g><use xlink:href="#a55FXx2OFq" opacity="1" fill="#513b3b" fill-opacity="1"></use></g><g><use xlink:href="#c3a2EO522" opacity="1" fill="#b1b1b1" fill-opacity="1"></use></g><g><use xlink:href="#dfVb7439F" opacity="1" fill="#6f6f6f" fill-opacity="1"></use><g><use xlink:href="#dfVb7439F" opacity="1" fill-opacity="0" stroke="#120e0e" stroke-width="1" stroke-opacity="0"></use></g></g><g><use xlink:href="#d13Kg0EUBa" opacity="1" fill="#d4c45b" fill-opacity="1"></use></g><g><use xlink:href="#d6pkPXcAom" opacity="1" fill="#d4c45b" fill-opacity="1"></use></g><g><use xlink:href="#d1Y7jm0QdS" opacity="1" fill="#d4c45b" fill-opacity="1"></use></g><g><use xlink:href="#efyk4muCF" opacity="1" fill="#d4c45b" fill-opacity="1"></use></g><g><use xlink:href="#caemWfwRgI" opacity="1" fill="#d4c45b" fill-opacity="1"></use></g><g><use xlink:href="#d42Pa7MTVC" opacity="1" fill="#d4c45b" fill-opacity="1"></use></g><g><use xlink:href="#a7zuZWR6l" opacity="1" fill="#d4c45b" fill-opacity="1"></use></g><g><use xlink:href="#f1jLknGi86" opacity="1" fill="#d4c45b" fill-opacity="1"></use></g><g><use xlink:href="#c3uMjcN2EP" opacity="1" fill="#d4c45b" fill-opacity="1"></use></g><g><use xlink:href="#d3jT6qgMjp" opacity="1" fill="#d4c45b" fill-opacity="1"></use></g><g><use xlink:href="#fHu3He7Im" opacity="1" fill="#d4c45b" fill-opacity="1"></use></g><g><use xlink:href="#c5lmiymwpW" opacity="1" fill="#d4c45b" fill-opacity="1"></use></g><g><use xlink:href="#c4gjOQH5CY" opacity="1" fill="#d4c45b" fill-opacity="1"></use></g><g><use xlink:href="#ckXFBybug" opacity="1" fill="#d4c45b" fill-opacity="1"></use></g><g><use xlink:href="#a4ftGNR7Z8" opacity="1" fill="#d4c45b" fill-opacity="1"></use></g><g><use xlink:href="#an7r9m3Oi" opacity="1" fill="#d4c45b" fill-opacity="1"></use></g><g><use xlink:href="#g3Pdw2vxq" opacity="1" fill="#d4c45b" fill-opacity="1"></use></g><g><use xlink:href="#b6VImArSt6" opacity="1" fill="#d4c45b" fill-opacity="1"></use></g><g><use xlink:href="#c78q7NcIAD" opacity="1" fill="#d4c45b" fill-opacity="1"></use></g><g><use xlink:href="#hlwNF6FUd" opacity="1" fill="#d4c45b" fill-opacity="1"></use></g><g><use xlink:href="#b12sGFF3oN" opacity="1" fill="#d4c45b" fill-opacity="1"></use></g><g><use xlink:href="#c5xc3kANS" opacity="1" fill="#d4c45b" fill-opacity="1"></use></g><g><use xlink:href="#d1p8XklrFE" opacity="1" fill="#d4c45b" fill-opacity="1"></use></g><g><use xlink:href="#aqoQL0yg2" opacity="1" fill="#d4c45b" fill-opacity="1"></use></g><g><use xlink:href="#a41zEUNE74" opacity="1" fill="#d4c45b" fill-opacity="1"></use></g><g><use xlink:href="#bEzLkj5ZU" opacity="1" fill="#d4c45b" fill-opacity="1"></use></g><g><use xlink:href="#amnB5lMtG" opacity="1" fill="#d4c45b" fill-opacity="1"></use></g><g><use xlink:href="#cspkJ5OD2" opacity="1" fill="#d4c45b" fill-opacity="1"></use></g><g><use xlink:href="#b3JtnDULVT" opacity="1" fill="#d4c45b" fill-opacity="1"></use></g><g><use xlink:href="#a2IoHTGPi9" opacity="1" fill="#d4c45b" fill-opacity="1"></use></g><g><use xlink:href="#bJP8e322E" opacity="1" fill="#d4c45b" fill-opacity="1"></use></g><g><use xlink:href="#b37x7obk4" opacity="1" fill="#d4c45b" fill-opacity="1"></use></g><g><use xlink:href="#ii7rGzgg2" opacity="1" fill="#d4c45b" fill-opacity="1"></use></g><g><use xlink:href="#a4MBBKeVq" opacity="1" fill="#d4c45b" fill-opacity="1"></use></g><g><use xlink:href="#b4EW5lvUyB" opacity="1" fill="#d4c45b" fill-opacity="1"></use></g><g><use xlink:href="#b8go0D1Ime" opacity="1" fill="#d4c45b" fill-opacity="1"></use></g><g><use xlink:href="#c3euEuNF3a" opacity="1" fill="#d4c45b" fill-opacity="1"></use></g><g><use xlink:href="#eBd7OXcur" opacity="1" fill="#d4c45b" fill-opacity="1"></use></g><g><use xlink:href="#b1NEdVJZYl" opacity="1" fill="#d4c45b" fill-opacity="1"></use></g><g><use xlink:href="#alwMUq6Rb" opacity="1" fill="#d4c45b" fill-opacity="1"></use></g><g><use xlink:href="#aNCk0BAD5" opacity="1" fill="#d4c45b" fill-opacity="1"></use></g><g><use xlink:href="#a6T9fErRsE" opacity="1" fill="#d4c45b" fill-opacity="1"></use></g><g><use xlink:href="#a17VmP96O8" opacity="1" fill="#d4c45b" fill-opacity="1"></use></g><g><use xlink:href="#b3zMOUYw7J" opacity="1" fill="#d4c45b" fill-opacity="1"></use></g><g><use xlink:href="#ai0ZIVtvu" opacity="1" fill="#6c2971" fill-opacity="1"></use></g><g><use xlink:href="#bOOvjHofS" opacity="1" fill="#342971" fill-opacity="1"></use></g><g><use xlink:href="#c9zzeqoci" opacity="1" fill="#714729" fill-opacity="1"></use></g><g><use xlink:href="#flw3JcAh1" opacity="1" fill="#b7a12c" fill-opacity="1"></use></g></g></svg>
